<?xml version="1.0" encoding="utf-8"?>
<!-- Generator: Adobe Illustrator 15.0.0, SVG Export Plug-In . SVG Version: 6.00 Build 0)  -->
<!DOCTYPE svg PUBLIC "-//W3C//DTD SVG 1.1//EN" "http://www.w3.org/Graphics/SVG/1.1/DTD/svg11.dtd">
<svg version="1.1" id="Layer_1" xmlns="http://www.w3.org/2000/svg" xmlns:xlink="http://www.w3.org/1999/xlink" x="0px" y="0px"
	 width="48px" height="48px" viewBox="0 0 48 48" enable-background="new 0 0 48 48" xml:space="preserve">
<g>
	<path fill="#FFFFFF" d="M10.132,28.37c0-1.54,0.278-2.708,0.836-3.504c0.557-0.795,1.443-1.318,2.658-1.568v-0.15
		c-1.215-0.25-2.101-0.776-2.658-1.578c-0.558-0.801-0.836-2.022-0.836-3.663v-5.73c0-1.29-0.385-2.27-1.156-2.94
		C8.206,8.566,6.95,8.2,5.209,8.137V6.446c2.179,0,3.851,0.485,5.016,1.456c1.165,0.971,1.747,2.395,1.747,4.274v6.575
		c0,1.252,0.341,2.183,1.024,2.79c0.683,0.608,1.781,0.924,3.297,0.949v1.503c-2.881,0.05-4.321,1.358-4.321,3.926v6.331
		c0,1.941-0.517,3.385-1.55,4.33c-1.033,0.945-2.771,1.419-5.213,1.419v-1.71c1.766-0.025,3.028-0.354,3.786-0.986
		c0.757-0.632,1.137-1.594,1.137-2.884V28.37z"/>
	<path fill="#FFFFFF" d="M23.136,4.586h1.729v38.832h-1.729V4.586z"/>
	<path fill="#FFFFFF" d="M37.868,34.419c0,1.278,0.372,2.231,1.118,2.865c0.744,0.633,2.012,0.968,3.805,1.005v1.71
		c-2.443,0-4.182-0.47-5.215-1.409s-1.549-2.386-1.549-4.34v-6.331c0-2.567-1.441-3.876-4.321-3.926V22.49
		c1.528-0.025,2.63-0.344,3.306-0.958c0.678-0.613,1.016-1.541,1.016-2.78v-6.575c0-3.745,2.255-5.655,6.765-5.73v1.691
		c-1.729,0.062-2.981,0.426-3.758,1.089c-0.777,0.664-1.165,1.647-1.165,2.95v5.73c0,1.628-0.276,2.843-0.827,3.645
		c-0.551,0.801-1.438,1.333-2.668,1.597v0.15c1.215,0.25,2.103,0.773,2.659,1.568c0.558,0.796,0.836,1.964,0.836,3.504
		L37.868,34.419L37.868,34.419z"/>
</g>
</svg>
