<?xml version="1.0" encoding="utf-8"?>
<!-- Generator: Adobe Illustrator 15.0.0, SVG Export Plug-In . SVG Version: 6.00 Build 0)  -->
<!DOCTYPE svg PUBLIC "-//W3C//DTD SVG 1.1//EN" "http://www.w3.org/Graphics/SVG/1.1/DTD/svg11.dtd">
<svg version="1.1" id="Layer_1" xmlns="http://www.w3.org/2000/svg" xmlns:xlink="http://www.w3.org/1999/xlink" x="0px" y="0px"
	 width="300px" height="160px" viewBox="0 0 300 160" enable-background="new 0 0 300 160" xml:space="preserve">
<g>
	<linearGradient id="SVGID_1_" gradientUnits="userSpaceOnUse" x1="33.9888" y1="121.2539" x2="33.9888" y2="38.6309">
		<stop  offset="0" style="stop-color:#0057C2"/>
		<stop  offset="0.3793" style="stop-color:#0082DC"/>
		<stop  offset="0.7887" style="stop-color:#00ABF5"/>
		<stop  offset="1" style="stop-color:#00BBFF"/>
	</linearGradient>
	<path fill="url(#SVGID_1_)" d="M42.573,82.157l-17.75-2.437c-5.569-0.618-9.553-2.553-11.949-5.801
		c-2.398-3.249-3.597-8.159-3.597-14.734c0-4.716,0.444-8.487,1.334-11.311c0.889-2.822,2.475-4.911,4.757-6.265
		c2.28-1.353,4.698-2.204,7.251-2.553c2.552-0.348,6.148-0.482,10.789-0.406c7.501,0.156,14.734,0.62,21.695,1.392l-0.349,2.205
		c-9.281-0.618-16.397-0.928-21.347-0.928c-3.017,0-5.278,0.04-6.787,0.116c-1.508,0.078-3.248,0.291-5.22,0.638
		c-1.973,0.348-3.405,0.89-4.293,1.625c-0.891,0.736-1.78,1.76-2.669,3.074c-0.89,1.316-1.489,2.978-1.798,4.988
		c-0.31,2.012-0.464,4.487-0.464,7.425c0,5.879,0.966,10.152,2.9,12.82c1.932,2.668,5.181,4.312,9.745,4.931l17.75,2.436
		c5.877,0.696,10.036,2.63,12.472,5.802c2.437,3.172,3.655,8.237,3.655,15.197c0,3.712-0.369,6.864-1.103,9.456
		c-0.736,2.591-1.702,4.641-2.9,6.148c-1.2,1.508-2.9,2.65-5.105,3.423c-2.204,0.771-4.408,1.276-6.612,1.508
		s-5.086,0.348-8.643,0.348c-8.51,0-16.398-0.426-23.668-1.276l0.349-2.204c8.043,0.62,15.854,0.891,23.436,0.812
		c4.252-0.076,7.578-0.309,9.977-0.696c2.396-0.387,4.525-1.219,6.381-2.495c1.856-1.274,3.15-3.112,3.887-5.51
		c0.734-2.396,1.102-5.568,1.102-9.514c0-6.265-0.985-10.711-2.958-13.341C50.868,84.401,47.446,82.776,42.573,82.157z"/>
	<linearGradient id="SVGID_2_" gradientUnits="userSpaceOnUse" x1="86.4834" y1="120.6748" x2="86.4834" y2="38.7676">
		<stop  offset="0" style="stop-color:#0057C2"/>
		<stop  offset="0.3793" style="stop-color:#0082DC"/>
		<stop  offset="0.7887" style="stop-color:#00ABF5"/>
		<stop  offset="1" style="stop-color:#00BBFF"/>
	</linearGradient>
	<path fill="url(#SVGID_2_)" d="M79.696,38.767v70.074c0,3.016,0.812,5.319,2.437,6.903c1.624,1.586,3.904,2.378,6.845,2.378h6.729
		l0.349,1.855c-1.548,0.465-4.022,0.697-7.425,0.697c-3.559,0-6.401-1.024-8.527-3.075c-2.128-2.048-3.19-4.931-3.19-8.643v-70.19
		H79.696z"/>
	<linearGradient id="SVGID_3_" gradientUnits="userSpaceOnUse" x1="109.9756" y1="119.9775" x2="109.9756" y2="41.2036">
		<stop  offset="0" style="stop-color:#0057C2"/>
		<stop  offset="0.3793" style="stop-color:#0082DC"/>
		<stop  offset="0.7887" style="stop-color:#00ABF5"/>
		<stop  offset="1" style="stop-color:#00BBFF"/>
	</linearGradient>
	<path fill="url(#SVGID_3_)" d="M109.396,41.203h1.16c0.928,0,1.393,0.464,1.393,1.392v7.193c0,0.928-0.465,1.393-1.393,1.393h-1.16
		c-0.929,0-1.393-0.464-1.393-1.393v-7.193C108.003,41.667,108.467,41.203,109.396,41.203z M111.367,119.978h-2.784V64.29h2.784
		V119.978z"/>
	<linearGradient id="SVGID_4_" gradientUnits="userSpaceOnUse" x1="153.8848" y1="121.3701" x2="153.8848" y2="38.7676">
		<stop  offset="0" style="stop-color:#0057C2"/>
		<stop  offset="0.3793" style="stop-color:#0082DC"/>
		<stop  offset="0.7887" style="stop-color:#00ABF5"/>
		<stop  offset="1" style="stop-color:#00BBFF"/>
	</linearGradient>
	<path fill="url(#SVGID_4_)" d="M176.798,38.767v81.21h-2.088l-0.465-9.745c-8.353,7.425-16.05,11.138-23.086,11.138
		c-7.271,0-12.453-2.222-15.547-6.671c-3.094-4.447-4.64-11.968-4.64-22.565c0-10.595,1.546-18.116,4.64-22.565
		c3.094-4.447,8.276-6.671,15.547-6.671c6.573,0,14.307,1.934,23.202,5.801c-0.231-2.01-0.347-5.607-0.347-10.789V38.767H176.798z
		 M174.015,107.564V71.135c-9.281-3.713-16.901-5.569-22.855-5.569c-6.265,0-10.714,2.012-13.342,6.033
		c-2.631,4.022-3.944,10.868-3.944,20.535c0,9.67,1.313,16.515,3.944,20.535c2.628,4.022,7.077,6.033,13.342,6.033
		c3.556,0,7.056-0.851,10.499-2.553C165.1,114.448,169.218,111.587,174.015,107.564z"/>
	<linearGradient id="SVGID_5_" gradientUnits="userSpaceOnUse" x1="218.7461" y1="121.3701" x2="218.7461" y2="62.8984">
		<stop  offset="0" style="stop-color:#0057C2"/>
		<stop  offset="0.3793" style="stop-color:#0082DC"/>
		<stop  offset="0.7887" style="stop-color:#00ABF5"/>
		<stop  offset="1" style="stop-color:#00BBFF"/>
	</linearGradient>
	<path fill="url(#SVGID_5_)" d="M229.7,93.643h-30.977c0.232,9.205,2.089,15.681,5.569,19.434c3.48,3.752,9.05,5.626,16.706,5.626
		c6.419,0,12.723-0.503,18.91-1.509l0.465,2.088c-4.486,1.394-11.062,2.089-19.723,2.089c-8.817,0-15.161-2.262-19.027-6.787
		c-3.867-4.524-5.8-12.084-5.8-22.681c0-10.596,1.815-18.079,5.452-22.449c3.635-4.369,9.783-6.555,18.446-6.555
		c14.387,0,21.695,5.26,21.927,15.778c0.155,5.104-0.696,8.875-2.552,11.312C237.241,92.425,234.109,93.643,229.7,93.643z
		 M198.724,91.09H229.7c3.325,0,5.703-1.004,7.135-3.016c1.431-2.011,2.068-5.065,1.915-9.166
		c-0.079-4.563-1.683-7.927-4.815-10.093c-3.132-2.165-7.831-3.249-14.096-3.249c-7.657,0-13.072,1.915-16.242,5.743
		C200.425,75.138,198.801,81.732,198.724,91.09z"/>
	<linearGradient id="SVGID_6_" gradientUnits="userSpaceOnUse" x1="275.3516" y1="119.9775" x2="275.3516" y2="62.8984">
		<stop  offset="0" style="stop-color:#0057C2"/>
		<stop  offset="0.3793" style="stop-color:#0082DC"/>
		<stop  offset="0.7887" style="stop-color:#00ABF5"/>
		<stop  offset="1" style="stop-color:#00BBFF"/>
	</linearGradient>
	<path fill="url(#SVGID_6_)" d="M290.723,62.898l-0.58,2.668h-1.973c-3.79,0-7.561,0.89-11.311,2.668
		c-3.752,1.781-8.451,4.681-14.097,8.702v43.042h-2.783V64.29h2.088l0.348,10.209c9.821-7.733,18.523-11.602,26.104-11.602H290.723z
		"/>
</g>
</svg>
